<svg width="104" height="100" viewBox="0 0 104 100" fill="none" xmlns="http://www.w3.org/2000/svg">
<path d="M13.9006 25.4286H76.0158V97.8119H13.9006C11.514 97.8119 9.22513 96.8638 7.53753 95.1762C5.84994 93.4886 4.90186 91.1997 4.90186 88.8131V34.4274C4.90186 32.0408 5.84994 29.7519 7.53753 28.0643C9.22513 26.3767 11.514 25.4286 13.9006 25.4286Z" fill="#FEBF30"/>
<path d="M87.8657 74.1593H28.6064V1.96079H87.8657C89.3878 1.96016 90.8951 2.25951 92.3015 2.84172C93.7079 3.42392 94.9858 4.27757 96.0621 5.35388C97.1384 6.43018 97.992 7.70804 98.5742 9.11442C99.1564 10.5208 99.4558 12.0281 99.4552 13.5503V62.5699C99.4552 65.6436 98.2341 68.5914 96.0607 70.7648C93.8872 72.9383 90.9394 74.1593 87.8657 74.1593Z" fill="#1AA5DC"/>
<path d="M76.0157 97.8119L28.6064 74.1593V25.4192H76.0157V97.8119Z" fill="#028E58"/>
<path d="M28.6064 1.96078V25.4192H76.0157L28.6064 1.96078Z" fill="#2C8FCE"/>
</svg>
