<svg width="158" height="219" viewBox="0 0 158 219" fill="none" xmlns="http://www.w3.org/2000/svg">
<g clip-path="url(#clip0_2972_207140)">
<path d="M124.1 68C124.2 68.2 124.6 68.5 125.2 68.9C124.5 68.4 124.1 68 124.1 68Z" fill="#FEC132"/>
<path d="M117.7 113.9C102.8 105.9 84.4 116.7 82.3 117.9L81.9 118.3L47.8 158.9C47.6 159.2 47.4 159.5 47.2 159.8C33.1 181.2 47 197.2 50.8 200L74.1 218.8L133.6 147.8C133 148.5 132.7 148.9 132.7 148.9C132.7 148.9 139.5 125.6 117.7 113.9Z" fill="#FEC132"/>
<path d="M156.7 114.8C157.8 109.8 157.4 105.1 155.9 100.9C157.1 105 157.6 109.8 156.7 114.8Z" fill="#FEC132"/>
<path d="M38.9 93.8C54.7 102.3 74.5 89.7 74.5 89.7L32.8 139.4L75.1 89L75.8 88.7L129.4 24.8L106.5 6.2C99.2 2.86102e-06 82.8 -4.3 68.6 7.1L24.6 59.2C24.6 59.2 17.1 82.1 38.9 93.8Z" fill="#1BA7E0"/>
<path d="M33.1 139.6L33.4 139.3L32.9 139.5L33.1 139.6Z" fill="#1BA7E0"/>
<path d="M74.5 89.7C74.5 89.7 54.7 102.4 38.9 93.8C17.1 82.1 24.6 59.2 24.6 59.2L6.90002 79.9C-5.19998 94.2 1.00002 112.8 7.40002 118.5C13.7 124 32.7 139.7 32.7 139.7L32.9 139.5L74.5 89.7Z" fill="#1593B7"/>
<path d="M156.7 114.8C157.6 109.8 157.1 105 155.9 100.9C154.7 96.7 152.7 93.1 150.8 90.8C146.6 85.7 129.7 72.5 125.2 69C124.6 68.6 124.2 68.3 124.1 68.2L82.4 118C84.5 116.7 102.9 106 117.8 114C139.6 125.7 132.9 149.1 132.9 149.1C132.9 149.1 133.2 148.7 133.8 148C137 144.3 147.4 132.2 151.2 127.3C154.2 123.1 155.9 118.9 156.7 114.8Z" fill="#FBA919"/>
<path d="M124 68.1C124.1 68.1 124.1 68.1 124 68.1H123.9L75.8 88.7L75.1 89L32.8 139.4L32.6 139.6L32.9 139.5L33.3 139.3L81.9 118.3L82.3 117.9L124 68.1Z" fill="#039058"/>
</g>
<defs>
<clipPath id="clip0_2972_207140">
<rect width="157.3" height="218.8" fill="white"/>
</clipPath>
</defs>
</svg>
