<?xml version="1.0" encoding="UTF-8"?>
<svg version="1.1" xmlns="http://www.w3.org/2000/svg" width="513" height="411">
<path d="M0 0 C111.54 0 223.08 0 338 0 C338 35.31 338 70.62 338 107 C388.16 107 438.32 107 490 107 C490 187.52 490 268.04 490 351 C483.4 351 476.8 351 470 351 C471.44375 353.71347656 472.8875 356.42695313 474.375 359.22265625 C475.77237058 361.89997623 477.15907956 364.58256731 478.54492188 367.26586914 C479.50399494 369.10918827 480.47382889 370.9469541 481.45507812 372.77856445 C487.49871557 384.07954978 491.79712742 392.98954627 490 406 C481.27678354 401.02527538 472.78489832 395.74421368 464.30859375 390.36328125 C458.65965542 386.77831701 452.98775166 383.23061801 447.3125 379.6875 C446.31573242 379.06504395 445.31896484 378.44258789 444.29199219 377.80126953 C442.24503366 376.52314784 440.19799503 375.24515442 438.15087891 373.96728516 C432.76600736 370.60518265 427.38311468 367.23991443 422 363.875 C420.06250891 362.66404825 418.12500939 361.45310997 416.1875 360.2421875 C411 357 411 357 409.32147837 355.76206857 C403.95203012 351.98908431 399.85599389 351.28077538 393.38220215 351.36076355 C392.44431681 351.35240787 391.50643147 351.3440522 390.54012537 351.33544332 C387.4137364 351.31358689 384.28853038 351.32709829 381.16210938 351.34057617 C378.91464347 351.33212004 376.66718489 351.32147459 374.41973877 351.30880737 C368.32939534 351.28067218 362.23940426 351.28313086 356.14901543 351.29110122 C349.78015832 351.2942269 343.4114133 351.26919003 337.04260254 351.24714661 C326.35650129 351.21395066 315.67051594 351.19808367 304.984375 351.19555664 C293.98042643 351.19290682 282.97657282 351.17971143 271.97265625 351.15258789 C271.28680954 351.15091037 270.60096283 351.14923286 269.89433289 351.14750451 C263.92791603 351.13281998 257.9615013 351.11733954 251.99508667 351.10178089 C226.33003038 351.03588492 200.66521723 351.02223672 175 351 C175 315.36 175 279.72 175 243 C164.72875 242.87625 154.4575 242.7525 143.875 242.625 C140.68183105 242.54975098 137.48866211 242.47450195 134.19873047 242.39697266 C116.35416888 242.2691234 104.44625303 244.8619794 90.12249756 256.32910156 C87.34867508 258.51274395 84.47093197 260.30405236 81.4453125 262.12109375 C80.55714844 262.67539062 79.66898437 263.2296875 78.75390625 263.80078125 C77.88636719 264.34089844 77.01882812 264.88101562 76.125 265.4375 C74.10675474 266.69658879 72.08852606 267.95570416 70.0703125 269.21484375 C69.06774414 269.83987793 68.06517578 270.46491211 67.03222656 271.10888672 C63.01647013 273.61339955 59.00315453 276.1218052 54.99023438 278.63085938 C53.01020395 279.86854005 51.02974095 281.10552898 49.04882812 282.34179688 C44.33752215 285.28286923 39.63037201 288.23004982 34.93560791 291.19747925 C33.25092064 292.261953 31.56492261 293.32435138 29.87890625 294.38671875 C27.74639974 295.73073546 25.61610424 297.07826816 23.48828125 298.4296875 C22.05935547 299.32880859 22.05935547 299.32880859 20.6015625 300.24609375 C19.75932129 300.77904053 18.91708008 301.3119873 18.04931641 301.86108398 C16 303 16 303 14 303 C15.2782386 298.92697886 16.79010093 295.17484582 18.70556641 291.36181641 C19.24597565 290.28114899 19.78638489 289.20048157 20.34317017 288.08706665 C20.92343964 286.93685028 21.50370911 285.78663391 22.1015625 284.6015625 C22.70440107 283.39962024 23.30688382 282.19749947 23.9090271 280.99520874 C25.48697804 277.84690587 27.06972086 274.70103642 28.65350342 271.55566406 C30.27192612 268.33935779 31.88580839 265.12077501 33.5 261.90234375 C36.66178702 255.59908968 39.83106754 249.29968501 43 243 C28.81 243 14.62 243 0 243 C0 162.81 0 82.62 0 0 Z M41 41 C41 94.13 41 147.26 41 202 C85.22 202 129.44 202 175 202 C175 170.65 175 139.3 175 107 C214.93 107 254.86 107 296 107 C296 85.22 296 63.44 296 41 C211.85 41 127.7 41 41 41 Z M217 149 C217 166.49 217 183.98 217 202 C243.07 202 269.14 202 296 202 C296 184.51 296 167.02 296 149 C269.93 149 243.86 149 217 149 Z M338 149 C338 180.02 338 211.04 338 243 C298.07 243 258.14 243 217 243 C217 264.78 217 286.56 217 309 C301.15 309 385.3 309 472 309 C472 256.2 472 203.4 472 149 C427.78 149 383.56 149 338 149 Z " fill="#C42139" transform="translate(23,0)"/>
</svg>
